<svg width="150" height="150" viewBox="0 0 150 150" fill="none" xmlns="http://www.w3.org/2000/svg">
<path d="M66.847 40.6641L17.5312 95.9351" stroke="black" stroke-width="2.52305"/>
<path d="M120.914 52.3047L17.5312 95.9327" stroke="black" stroke-width="2.52305"/>
<path d="M67.584 109.918L17.3984 96" stroke="black" stroke-width="2.52305"/>
<path d="M68.1849 40.125L52.0586 82.0802" stroke="black" stroke-width="2.52305"/>
<path d="M70.0599 108.856L52.3945 81.5547" stroke="black" stroke-width="2.52305"/>
<path d="M68.0469 38.3203L121.043 48.3574" stroke="black" stroke-width="2.52305"/>
<path d="M67.918 37.7188L116.832 76.7966" stroke="black" stroke-width="2.52305"/>
<path d="M124.662 56.2578L116.699 77.0012" stroke="black" stroke-width="2.52305"/>
<path d="M68.7891 37.25L71.4656 111.659" stroke="black" stroke-width="2.52305"/>
<path d="M122.854 54.25L71.1289 111.462" stroke="black" stroke-width="2.52305"/>
<path d="M113.35 79.4766L73.4688 109.521" stroke="black" stroke-width="2.52305"/>
<circle cx="127.942" cy="49.4967" r="10.3717" fill="#FFC107"/>
<circle cx="71.3614" cy="109.69" r="7.72858" fill="#2196F4"/>
<circle cx="68.8881" cy="38.0873" r="5.58733" fill="#F34335"/>
<circle cx="52.1615" cy="81.2514" r="5.58733" fill="#9C27AF"/>
<circle cx="17.4311" cy="96.1655" r="5.58733" fill="#F34335"/>
<circle cx="116.798" cy="77.6967" r="5.58733" fill="#8BC349"/>
</svg>
