<svg version="1.1" viewBox="0.0 0.0 716.0 449.0" fill="none" stroke="none" stroke-linecap="square" stroke-miterlimit="10" width="716" height="449" xmlns:xlink="http://www.w3.org/1999/xlink" xmlns="http://www.w3.org/2000/svg"><path fill="#ffffff" d="M0 0L716.0 0L716.0 449.0L0 449.0L0 0Z" fill-rule="nonzero"/><path fill="#4285f4" d="M229.22034 0C293.6651 0 355.00217 27.694742 397.62027 76.035484C440.23837 124.37623 460.02716 188.7007 451.95007 252.63731L229.22034 224.5Z" fill-rule="nonzero"/><path fill="#ea4335" d="M451.95007 252.63731C439.76025 349.1297 366.824 426.79892 271.28745 445.0235L229.22034 224.5Z" fill-rule="nonzero"/><path fill="#7baaf7" d="M215.12386 0.44299948C219.81688 0.14773937 224.51804 0 229.22034 0L229.22034 224.5Z" fill-rule="nonzero"/><path fill="#46bdc6" d="M133.63287 21.366327C159.23526 9.318761 186.88437 2.219678 215.12386 0.44299948L229.22034 224.5Z" fill-rule="nonzero"/><path fill="#ff6d01" d="M8.696844 182.43289C22.162735 111.842224 68.60877 51.964348 133.63287 21.366327L229.22034 224.5Z" fill-rule="nonzero"/><path fill="#34a853" d="M6.4905815 252.63731C3.5379758 229.26503 4.282507 205.57365 8.696844 182.43289L229.22034 224.5Z" fill-rule="nonzero"/><path fill="#fbbc04" d="M271.28745 445.0235C210.39648 456.63907 147.41266 442.56052 97.26254 406.12433C47.112427 369.6881 14.259857 314.13745 6.4905815 252.63731L229.22034 224.5Z" fill-rule="nonzero"/><path fill="#4285f4" d="M500.374 95.34771C500.374 98.661415 497.6877 101.34771 494.374 101.34771C491.0603 101.34771 488.374 98.661415 488.374 95.34771C488.374 92.034 491.0603 89.34771 494.374 89.34771C497.6877 89.34771 500.374 92.034 500.374 95.34771Z" fill-rule="nonzero"/><path fill="#1a1a1a" d="M509.32712 99.34771L509.32712 90.75396L515.5303 90.75396L515.5303 91.769585L510.46774 91.769585L510.46774 94.394585L515.2178 94.394585L515.2178 95.41021L510.46774 95.41021L510.46774 98.332085L515.7334 98.332085L515.7334 99.34771L509.32712 99.34771ZM521.2334 97.06646L522.26465 97.207085Q522.0928 98.269585 521.38965 98.87896Q520.6865 99.488335 519.6709 99.488335Q518.38965 99.488335 517.6084 98.66021Q516.8428 97.81646 516.8428 96.25396Q516.8428 95.25396 517.1709 94.50396Q517.51465 93.738335 518.1865 93.363335Q518.874 92.988335 519.6865 92.988335Q520.6865 92.988335 521.32715 93.50396Q521.9834 94.00396 522.1709 94.957085L521.13965 95.113335Q520.999 94.488335 520.624 94.175835Q520.249 93.84771 519.7178 93.84771Q518.9209 93.84771 518.4209 94.425835Q517.9209 94.988335 517.9209 96.22271Q517.9209 97.488335 518.4053 98.050835Q518.88965 98.613335 519.6553 98.613335Q520.2803 98.613335 520.6865 98.238335Q521.1084 97.863335 521.2334 97.06646ZM522.7803 96.238335Q522.7803 94.50396 523.7334 93.675835Q524.5303 92.988335 525.6865 92.988335Q526.9678 92.988335 527.7803 93.832085Q528.6084 94.66021 528.6084 96.144585Q528.6084 97.34771 528.249 98.03521Q527.88965 98.72271 527.1865 99.113335Q526.499 99.488335 525.6865 99.488335Q524.38965 99.488335 523.57715 98.66021Q522.7803 97.81646 522.7803 96.238335ZM523.8584 96.238335Q523.8584 97.425835 524.374 98.019585Q524.9053 98.613335 525.6865 98.613335Q526.4834 98.613335 526.999 98.019585Q527.51465 97.425835 527.51465 96.207085Q527.51465 95.050835 526.9834 94.457085Q526.4678 93.863335 525.6865 93.863335Q524.9053 93.863335 524.374 94.457085Q523.8584 95.03521 523.8584 96.238335ZM529.749 97.488335L530.7803 97.332085Q530.874 97.957085 531.26465 98.28521Q531.6709 98.613335 532.4053 98.613335Q533.124 98.613335 533.4678 98.332085Q533.82715 98.03521 533.82715 97.62896Q533.82715 97.269585 533.51465 97.06646Q533.2959 96.925835 532.4365 96.707085Q531.2803 96.41021 530.82715 96.207085Q530.38965 95.988335 530.1553 95.613335Q529.9209 95.238335 529.9209 94.769585Q529.9209 94.363335 530.1084 94.00396Q530.2959 93.644585 530.624 93.41021Q530.874 93.238335 531.2959 93.113335Q531.7178 92.988335 532.2178 92.988335Q532.9365 92.988335 533.4834 93.207085Q534.0459 93.41021 534.3115 93.769585Q534.57715 94.12896 534.6709 94.72271L533.63965 94.863335Q533.57715 94.394585 533.2334 94.12896Q532.9053 93.84771 532.2803 93.84771Q531.5615 93.84771 531.249 94.09771Q530.9365 94.332085 530.9365 94.66021Q530.9365 94.863335 531.0615 95.019585Q531.20215 95.19146 531.4678 95.300835Q531.624 95.363335 532.4053 95.56646Q533.5303 95.87896 533.9678 96.06646Q534.4053 96.25396 534.6553 96.613335Q534.9053 96.97271 534.9053 97.519585Q534.9053 98.050835 534.5928 98.519585Q534.2959 98.97271 533.7178 99.238335Q533.13965 99.488335 532.4053 99.488335Q531.1865 99.488335 530.5459 98.988335Q529.9209 98.47271 529.749 97.488335ZM537.124 101.738335L536.999 100.75396Q537.3428 100.84771 537.6084 100.84771Q537.95215 100.84771 538.1553 100.72271Q538.374 100.613335 538.51465 100.41021Q538.6084 100.238335 538.8428 99.613335Q538.8584 99.53521 538.9365 99.363335L536.5615 93.12896L537.70215 93.12896L538.999 96.72271Q539.249 97.41021 539.45215 98.175835Q539.63965 97.44146 539.88965 96.75396L541.2178 93.12896L542.26465 93.12896L539.9053 99.457085Q539.51465 100.47271 539.3115 100.863335Q539.0303 101.394585 538.6553 101.62896Q538.2959 101.87896 537.7959 101.87896Q537.499 101.87896 537.124 101.738335ZM541.749 97.488335L542.7803 97.332085Q542.874 97.957085 543.26465 98.28521Q543.6709 98.613335 544.4053 98.613335Q545.124 98.613335 545.4678 98.332085Q545.82715 98.03521 545.82715 97.62896Q545.82715 97.269585 545.51465 97.06646Q545.2959 96.925835 544.4365 96.707085Q543.2803 96.41021 542.82715 96.207085Q542.38965 95.988335 542.1553 95.613335Q541.9209 95.238335 541.9209 94.769585Q541.9209 94.363335 542.1084 94.00396Q542.2959 93.644585 542.624 93.41021Q542.874 93.238335 543.2959 93.113335Q543.7178 92.988335 544.2178 92.988335Q544.9365 92.988335 545.4834 93.207085Q546.0459 93.41021 546.3115 93.769585Q546.57715 94.12896 546.6709 94.72271L545.63965 94.863335Q545.57715 94.394585 545.2334 94.12896Q544.9053 93.84771 544.2803 93.84771Q543.5615 93.84771 543.249 94.09771Q542.9365 94.332085 542.9365 94.66021Q542.9365 94.863335 543.0615 95.019585Q543.20215 95.19146 543.4678 95.300835Q543.624 95.363335 544.4053 95.56646Q545.5303 95.87896 545.9678 96.06646Q546.4053 96.25396 546.6553 96.613335Q546.9053 96.97271 546.9053 97.519585Q546.9053 98.050835 546.5928 98.519585Q546.2959 98.97271 545.7178 99.238335Q545.13965 99.488335 544.4053 99.488335Q543.1865 99.488335 542.5459 98.988335Q541.9209 98.47271 541.749 97.488335ZM551.4678 98.41021L551.624 99.332085Q551.1709 99.425835 550.82715 99.425835Q550.249 99.425835 549.9365 99.25396Q549.624 99.06646 549.4834 98.769585Q549.3584 98.47271 549.3584 97.519585L549.3584 93.94146L548.5928 93.94146L548.5928 93.12896L549.3584 93.12896L549.3584 91.582085L550.4053 90.957085L550.4053 93.12896L551.4678 93.12896L551.4678 93.94146L550.4053 93.94146L550.4053 97.582085Q550.4053 98.03521 550.45215 98.16021Q550.51465 98.28521 550.63965 98.363335Q550.76465 98.44146 550.999 98.44146Q551.1865 98.44146 551.4678 98.41021ZM556.4209 97.34771L557.51465 97.47271Q557.26465 98.425835 556.5615 98.957085Q555.8584 99.488335 554.7803 99.488335Q553.4209 99.488335 552.6084 98.644585Q551.8115 97.800835 551.8115 96.28521Q551.8115 94.72271 552.624 93.863335Q553.4365 92.988335 554.7178 92.988335Q555.9678 92.988335 556.749 93.832085Q557.5459 94.675835 557.5459 96.22271Q557.5459 96.31646 557.5459 96.50396L552.9053 96.50396Q552.9678 97.53521 553.4834 98.082085Q553.999 98.613335 554.7803 98.613335Q555.3584 98.613335 555.76465 98.31646Q556.1865 98.00396 556.4209 97.34771ZM552.9678 95.644585L556.4365 95.644585Q556.374 94.84771 556.0459 94.457085Q555.5303 93.84771 554.7334 93.84771Q553.999 93.84771 553.499 94.332085Q553.01465 94.81646 552.9678 95.644585ZM559.1709 99.34771L559.1709 93.12896L560.1084 93.12896L560.1084 94.00396Q560.4053 93.53521 560.88965 93.269585Q561.374 92.988335 561.999 92.988335Q562.6865 92.988335 563.124 93.269585Q563.57715 93.550835 563.749 94.06646Q564.499 92.988335 565.6709 92.988335Q566.6084 92.988335 567.0928 93.50396Q567.5928 94.00396 567.5928 95.082085L567.5928 99.34771L566.5459 99.34771L566.5459 95.425835Q566.5459 94.800835 566.4365 94.519585Q566.3428 94.238335 566.07715 94.06646Q565.8115 93.894585 565.4365 93.894585Q564.7803 93.894585 564.3428 94.332085Q563.9209 94.769585 563.9209 95.738335L563.9209 99.34771L562.8584 99.34771L562.8584 95.300835Q562.8584 94.59771 562.5928 94.25396Q562.3428 93.894585 561.76465 93.894585Q561.3115 93.894585 560.9365 94.12896Q560.5615 94.363335 560.38965 94.81646Q560.2178 95.269585 560.2178 96.113335L560.2178 99.34771L559.1709 99.34771Z" fill-rule="nonzero"/><path fill="#ea4335" d="M500.374 119.34771C500.374 122.661415 497.6877 125.34771 494.374 125.34771C491.0603 125.34771 488.374 122.661415 488.374 119.34771C488.374 116.034 491.0603 113.34771 494.374 113.34771C497.6877 113.34771 500.374 116.034 500.374 119.34771Z" fill-rule="nonzero"/><path fill="#1a1a1a" d="M509.35837 123.34771L509.35837 114.75396L515.1553 114.75396L515.1553 115.769585L510.499 115.769585L510.499 118.425835L514.5303 118.425835L514.5303 119.44146L510.499 119.44146L510.499 123.34771L509.35837 123.34771ZM515.7803 120.238335Q515.7803 118.50396 516.7334 117.675835Q517.5303 116.988335 518.6865 116.988335Q519.9678 116.988335 520.7803 117.832085Q521.6084 118.66021 521.6084 120.144585Q521.6084 121.34771 521.249 122.03521Q520.88965 122.72271 520.1865 123.113335Q519.499 123.488335 518.6865 123.488335Q517.38965 123.488335 516.57715 122.66021Q515.7803 121.81646 515.7803 120.238335ZM516.8584 120.238335Q516.8584 121.425835 517.374 122.019585Q517.9053 122.613335 518.6865 122.613335Q519.4834 122.613335 519.999 122.019585Q520.51465 121.425835 520.51465 120.207085Q520.51465 119.050835 519.9834 118.457085Q519.4678 117.863335 518.6865 117.863335Q517.9053 117.863335 517.374 118.457085Q516.8584 119.03521 516.8584 120.238335ZM527.249 123.34771L527.249 122.425835Q526.51465 123.488335 525.26465 123.488335Q524.7178 123.488335 524.2334 123.28521Q523.76465 123.06646 523.5303 122.75396Q523.2959 122.425835 523.20215 121.957085Q523.13965 121.66021 523.13965 120.97271L523.13965 117.12896L524.20215 117.12896L524.20215 120.582085Q524.20215 121.394585 524.26465 121.69146Q524.3584 122.09771 524.6709 122.34771Q524.999 122.582085 525.4834 122.582085Q525.95215 122.582085 526.3584 122.34771Q526.7803 122.09771 526.95215 121.675835Q527.13965 121.25396 527.13965 120.457085L527.13965 117.12896L528.1865 117.12896L528.1865 123.34771L527.249 123.34771ZM530.1709 123.34771L530.1709 117.12896L531.1084 117.12896L531.1084 118.00396Q531.7959 116.988335 533.0928 116.988335Q533.6553 116.988335 534.124 117.19146Q534.6084 117.394585 534.8428 117.72271Q535.07715 118.050835 535.1709 118.488335Q535.2178 118.78521 535.2178 119.519585L535.2178 123.34771L534.1709 123.34771L534.1709 119.56646Q534.1709 118.91021 534.0459 118.59771Q533.9209 118.28521 533.6084 118.09771Q533.2959 117.894585 532.874 117.894585Q532.20215 117.894585 531.70215 118.332085Q531.2178 118.75396 531.2178 119.94146L531.2178 123.34771L530.1709 123.34771ZM541.20215 123.34771L541.20215 122.56646Q540.6084 123.488335 539.4678 123.488335Q538.7178 123.488335 538.0928 123.082085Q537.4678 122.66021 537.124 121.925835Q536.7803 121.19146 536.7803 120.238335Q536.7803 119.31646 537.0928 118.550835Q537.4053 117.78521 538.0303 117.394585Q538.6553 116.988335 539.4209 116.988335Q539.9834 116.988335 540.4209 117.22271Q540.8584 117.457085 541.13965 117.832085L541.13965 114.75396L542.1865 114.75396L542.1865 123.34771L541.20215 123.34771ZM537.874 120.238335Q537.874 121.44146 538.374 122.03521Q538.874 122.613335 539.5615 122.613335Q540.249 122.613335 540.7334 122.050835Q541.2178 121.488335 541.2178 120.332085Q541.2178 119.050835 540.7178 118.457085Q540.2334 117.863335 539.51465 117.863335Q538.8115 117.863335 538.3428 118.44146Q537.874 119.00396 537.874 120.238335ZM548.2334 122.582085Q547.63965 123.082085 547.0928 123.28521Q546.5615 123.488335 545.9365 123.488335Q544.9053 123.488335 544.3584 122.988335Q543.8115 122.488335 543.8115 121.707085Q543.8115 121.25396 544.01465 120.87896Q544.2178 120.488335 544.5615 120.269585Q544.9053 120.03521 545.32715 119.925835Q545.624 119.832085 546.26465 119.75396Q547.5303 119.613335 548.13965 119.394585Q548.13965 119.175835 548.13965 119.12896Q548.13965 118.47271 547.8428 118.207085Q547.4365 117.863335 546.63965 117.863335Q545.9053 117.863335 545.5459 118.12896Q545.1865 118.37896 545.01465 119.03521L543.9834 118.894585Q544.124 118.238335 544.45215 117.832085Q544.7803 117.425835 545.38965 117.207085Q545.999 116.988335 546.7959 116.988335Q547.5928 116.988335 548.0928 117.175835Q548.5928 117.363335 548.82715 117.644585Q549.0615 117.925835 549.1553 118.363335Q549.20215 118.62896 549.20215 119.332085L549.20215 120.738335Q549.20215 122.207085 549.26465 122.59771Q549.3428 122.988335 549.5459 123.34771L548.4365 123.34771Q548.2803 123.019585 548.2334 122.582085ZM548.13965 120.22271Q547.5615 120.457085 546.4209 120.62896Q545.76465 120.72271 545.499 120.84771Q545.2334 120.957085 545.07715 121.175835Q544.9365 121.394585 544.9365 121.675835Q544.9365 122.09771 545.249 122.37896Q545.57715 122.66021 546.1865 122.66021Q546.7959 122.66021 547.26465 122.394585Q547.749 122.12896 547.9678 121.66021Q548.13965 121.300835 548.13965 120.613335L548.13965 120.22271ZM553.4678 122.41021L553.624 123.332085Q553.1709 123.425835 552.82715 123.425835Q552.249 123.425835 551.9365 123.25396Q551.624 123.06646 551.4834 122.769585Q551.3584 122.47271 551.3584 121.519585L551.3584 117.94146L550.5928 117.94146L550.5928 117.12896L551.3584 117.12896L551.3584 115.582085L552.4053 114.957085L552.4053 117.12896L553.4678 117.12896L553.4678 117.94146L552.4053 117.94146L552.4053 121.582085Q552.4053 122.03521 552.45215 122.16021Q552.51465 122.28521 552.63965 122.363335Q552.76465 122.44146 552.999 122.44146Q553.1865 122.44146 553.4678 122.41021ZM554.1709 115.97271L554.1709 114.75396L555.2334 114.75396L555.2334 115.97271L554.1709 115.97271ZM554.1709 123.34771L554.1709 117.12896L555.2334 117.12896L555.2334 123.34771L554.1709 123.34771ZM556.7803 120.238335Q556.7803 118.50396 557.7334 117.675835Q558.5303 116.988335 559.6865 116.988335Q560.9678 116.988335 561.7803 117.832085Q562.6084 118.66021 562.6084 120.144585Q562.6084 121.34771 562.249 122.03521Q561.88965 122.72271 561.1865 123.113335Q560.499 123.488335 559.6865 123.488335Q558.38965 123.488335 557.57715 122.66021Q556.7803 121.81646 556.7803 120.238335ZM557.8584 120.238335Q557.8584 121.425835 558.374 122.019585Q558.9053 122.613335 559.6865 122.613335Q560.4834 122.613335 560.999 122.019585Q561.51465 121.425835 561.51465 120.207085Q561.51465 119.050835 560.9834 118.457085Q560.4678 117.863335 559.6865 117.863335Q558.9053 117.863335 558.374 118.457085Q557.8584 119.03521 557.8584 120.238335ZM564.1709 123.34771L564.1709 117.12896L565.1084 117.12896L565.1084 118.00396Q565.7959 116.988335 567.0928 116.988335Q567.6553 116.988335 568.124 117.19146Q568.6084 117.394585 568.8428 117.72271Q569.07715 118.050835 569.1709 118.488335Q569.2178 118.78521 569.2178 119.519585L569.2178 123.34771L568.1709 123.34771L568.1709 119.56646Q568.1709 118.91021 568.0459 118.59771Q567.9209 118.28521 567.6084 118.09771Q567.2959 117.894585 566.874 117.894585Q566.20215 117.894585 565.70215 118.332085Q565.2178 118.75396 565.2178 119.94146L565.2178 123.34771L564.1709 123.34771Z" fill-rule="nonzero"/><path fill="#fbbc04" d="M500.374 143.3477C500.374 146.66142 497.6877 149.3477 494.374 149.3477C491.0603 149.3477 488.374 146.66142 488.374 143.3477C488.374 140.034 491.0603 137.3477 494.374 137.3477C497.6877 137.3477 500.374 140.034 500.374 143.3477Z" fill-rule="nonzero"/><path fill="#1a1a1a" d="M509.29587 147.3477L509.29587 138.75395L512.5459 138.75395Q513.38965 138.75395 513.8428 138.83208Q514.4834 138.94145 514.9053 139.23833Q515.3428 139.5352 515.5928 140.06645Q515.8584 140.5977 515.8584 141.23833Q515.8584 142.33208 515.1553 143.0977Q514.4678 143.8477 512.63965 143.8477L510.4365 143.8477L510.4365 147.3477L509.29587 147.3477ZM510.4365 142.8477L512.6553 142.8477Q513.76465 142.8477 514.2178 142.44145Q514.6865 142.01958 514.6865 141.26958Q514.6865 140.73833 514.4053 140.36333Q514.13965 139.9727 513.70215 139.8477Q513.4053 139.76958 512.63965 139.76958L510.4365 139.76958L510.4365 142.8477ZM517.1553 147.3477L517.1553 141.12895L518.1084 141.12895L518.1084 142.06645Q518.4678 141.4102 518.76465 141.20708Q519.07715 140.98833 519.45215 140.98833Q519.9834 140.98833 520.5303 141.31645L520.1709 142.30083Q519.7803 142.06645 519.4053 142.06645Q519.0459 142.06645 518.76465 142.2852Q518.499 142.48833 518.38965 142.86333Q518.20215 143.42583 518.20215 144.08208L518.20215 147.3477L517.1553 147.3477ZM521.1709 139.9727L521.1709 138.75395L522.2334 138.75395L522.2334 139.9727L521.1709 139.9727ZM521.1709 147.3477L521.1709 141.12895L522.2334 141.12895L522.2334 147.3477L521.1709 147.3477ZM525.88965 147.3477L523.5303 141.12895L524.63965 141.12895L525.9834 144.8477Q526.1865 145.45708 526.374 146.0977Q526.51465 145.61333 526.76465 144.92583L528.1553 141.12895L529.2334 141.12895L526.874 147.3477L525.88965 147.3477ZM533.2334 146.58208Q532.63965 147.08208 532.0928 147.2852Q531.5615 147.48833 530.9365 147.48833Q529.9053 147.48833 529.3584 146.98833Q528.8115 146.48833 528.8115 145.70708Q528.8115 145.25395 529.01465 144.87895Q529.2178 144.48833 529.5615 144.26958Q529.9053 144.0352 530.32715 143.92583Q530.624 143.83208 531.26465 143.75395Q532.5303 143.61333 533.13965 143.39458Q533.13965 143.17583 533.13965 143.12895Q533.13965 142.4727 532.8428 142.20708Q532.4365 141.86333 531.63965 141.86333Q530.9053 141.86333 530.5459 142.12895Q530.1865 142.37895 530.01465 143.0352L528.9834 142.89458Q529.124 142.23833 529.45215 141.83208Q529.7803 141.42583 530.38965 141.20708Q530.999 140.98833 531.7959 140.98833Q532.5928 140.98833 533.0928 141.17583Q533.5928 141.36333 533.82715 141.64458Q534.0615 141.92583 534.1553 142.36333Q534.20215 142.62895 534.20215 143.33208L534.20215 144.73833Q534.20215 146.20708 534.26465 146.5977Q534.3428 146.98833 534.5459 147.3477L533.4365 147.3477Q533.2803 147.01958 533.2334 146.58208ZM533.13965 144.2227Q532.5615 144.45708 531.4209 144.62895Q530.76465 144.7227 530.499 144.8477Q530.2334 144.95708 530.07715 145.17583Q529.9365 145.39458 529.9365 145.67583Q529.9365 146.0977 530.249 146.37895Q530.57715 146.6602 531.1865 146.6602Q531.7959 146.6602 532.26465 146.39458Q532.749 146.12895 532.9678 145.6602Q533.13965 145.30083 533.13965 144.61333L533.13965 144.2227ZM538.4678 146.4102L538.624 147.33208Q538.1709 147.42583 537.82715 147.42583Q537.249 147.42583 536.9365 147.25395Q536.624 147.06645 536.4834 146.76958Q536.3584 146.4727 536.3584 145.51958L536.3584 141.94145L535.5928 141.94145L535.5928 141.12895L536.3584 141.12895L536.3584 139.58208L537.4053 138.95708L537.4053 141.12895L538.4678 141.12895L538.4678 141.94145L537.4053 141.94145L537.4053 145.58208Q537.4053 146.0352 537.45215 146.1602Q537.51465 146.2852 537.63965 146.36333Q537.76465 146.44145 537.999 146.44145Q538.1865 146.44145 538.4678 146.4102ZM543.4209 145.3477L544.51465 145.4727Q544.26465 146.42583 543.5615 146.95708Q542.8584 147.48833 541.7803 147.48833Q540.4209 147.48833 539.6084 146.64458Q538.8115 145.80083 538.8115 144.2852Q538.8115 142.7227 539.624 141.86333Q540.4365 140.98833 541.7178 140.98833Q542.9678 140.98833 543.749 141.83208Q544.5459 142.67583 544.5459 144.2227Q544.5459 144.31645 544.5459 144.50395L539.9053 144.50395Q539.9678 145.5352 540.4834 146.08208Q540.999 146.61333 541.7803 146.61333Q542.3584 146.61333 542.76465 146.31645Q543.1865 146.00395 543.4209 145.3477ZM539.9678 143.64458L543.4365 143.64458Q543.374 142.8477 543.0459 142.45708Q542.5303 141.8477 541.7334 141.8477Q540.999 141.8477 540.499 142.33208Q540.01465 142.81645 539.9678 143.64458ZM548.9209 144.58208L549.9834 144.48833Q550.0615 145.14458 550.3428 145.55083Q550.624 145.95708 551.20215 146.2227Q551.7959 146.4727 552.5303 146.4727Q553.1709 146.4727 553.6709 146.2852Q554.1709 146.08208 554.4053 145.75395Q554.6553 145.4102 554.6553 145.01958Q554.6553 144.61333 554.4209 144.31645Q554.1865 144.00395 553.6553 143.80083Q553.2959 143.6602 552.1084 143.37895Q550.9365 143.0977 550.4678 142.8477Q549.8428 142.51958 549.5459 142.05083Q549.249 141.56645 549.249 140.9727Q549.249 140.33208 549.6084 139.76958Q549.9834 139.19145 550.6865 138.9102Q551.4053 138.61333 552.26465 138.61333Q553.2178 138.61333 553.95215 138.92583Q554.6865 139.2227 555.07715 139.83208Q555.4678 140.42583 555.499 141.17583L554.4053 141.25395Q554.3115 140.44145 553.7959 140.0352Q553.2959 139.61333 552.3115 139.61333Q551.2803 139.61333 550.8115 139.98833Q550.3428 140.36333 550.3428 140.89458Q550.3428 141.36333 550.6709 141.6602Q550.999 141.95708 552.374 142.26958Q553.76465 142.58208 554.2803 142.81645Q555.0303 143.17583 555.38965 143.70708Q555.749 144.2227 555.749 144.92583Q555.749 145.61333 555.3584 146.2227Q554.9678 146.81645 554.2334 147.1602Q553.499 147.48833 552.57715 147.48833Q551.4053 147.48833 550.6084 147.1602Q549.82715 146.81645 549.374 146.12895Q548.9365 145.44145 548.9209 144.58208ZM561.2334 146.58208Q560.63965 147.08208 560.0928 147.2852Q559.5615 147.48833 558.9365 147.48833Q557.9053 147.48833 557.3584 146.98833Q556.8115 146.48833 556.8115 145.70708Q556.8115 145.25395 557.01465 144.87895Q557.2178 144.48833 557.5615 144.26958Q557.9053 144.0352 558.32715 143.92583Q558.624 143.83208 559.26465 143.75395Q560.5303 143.61333 561.13965 143.39458Q561.13965 143.17583 561.13965 143.12895Q561.13965 142.4727 560.8428 142.20708Q560.4365 141.86333 559.63965 141.86333Q558.9053 141.86333 558.5459 142.12895Q558.1865 142.37895 558.01465 143.0352L556.9834 142.89458Q557.124 142.23833 557.45215 141.83208Q557.7803 141.42583 558.38965 141.20708Q558.999 140.98833 559.7959 140.98833Q560.5928 140.98833 561.0928 141.17583Q561.5928 141.36333 561.82715 141.64458Q562.0615 141.92583 562.1553 142.36333Q562.20215 142.62895 562.20215 143.33208L562.20215 144.73833Q562.20215 146.20708 562.26465 146.5977Q562.3428 146.98833 562.5459 147.3477L561.4365 147.3477Q561.2803 147.01958 561.2334 146.58208ZM561.13965 144.2227Q560.5615 144.45708 559.4209 144.62895Q558.76465 144.7227 558.499 144.8477Q558.2334 144.95708 558.07715 145.17583Q557.9365 145.39458 557.9365 145.67583Q557.9365 146.0977 558.249 146.37895Q558.57715 146.6602 559.1865 146.6602Q559.7959 146.6602 560.26465 146.39458Q560.749 146.12895 560.9678 145.6602Q561.13965 145.30083 561.13965 144.61333L561.13965 144.2227ZM564.13965 147.3477L564.13965 138.75395L565.20215 138.75395L565.20215 147.3477L564.13965 147.3477ZM571.4209 145.3477L572.51465 145.4727Q572.26465 146.42583 571.5615 146.95708Q570.8584 147.48833 569.7803 147.48833Q568.4209 147.48833 567.6084 146.64458Q566.8115 145.80083 566.8115 144.2852Q566.8115 142.7227 567.624 141.86333Q568.4365 140.98833 569.7178 140.98833Q570.9678 140.98833 571.749 141.83208Q572.5459 142.67583 572.5459 144.2227Q572.5459 144.31645 572.5459 144.50395L567.9053 144.50395Q567.9678 145.5352 568.4834 146.08208Q568.999 146.61333 569.7803 146.61333Q570.3584 146.61333 570.76465 146.31645Q571.1865 146.00395 571.4209 145.3477ZM567.9678 143.64458L571.4365 143.64458Q571.374 142.8477 571.0459 142.45708Q570.5303 141.8477 569.7334 141.8477Q568.999 141.8477 568.499 142.33208Q568.01465 142.81645 567.9678 143.64458Z" fill-rule="nonzero"/><path fill="#34a853" d="M500.374 167.3477C500.374 170.66142 497.6877 173.3477 494.374 173.3477C491.0603 173.3477 488.374 170.66142 488.374 167.3477C488.374 164.034 491.0603 161.3477 494.374 161.3477C497.6877 161.3477 500.374 164.034 500.374 167.3477Z" fill-rule="nonzero"/><path fill="#1a1a1a" d="M509.29587 171.3477L509.29587 162.75395L512.5459 162.75395Q513.38965 162.75395 513.8428 162.83208Q514.4834 162.94145 514.9053 163.23833Q515.3428 163.5352 515.5928 164.06645Q515.8584 164.5977 515.8584 165.23833Q515.8584 166.33208 515.1553 167.0977Q514.4678 167.8477 512.63965 167.8477L510.4365 167.8477L510.4365 171.3477L509.29587 171.3477ZM510.4365 166.8477L512.6553 166.8477Q513.76465 166.8477 514.2178 166.44145Q514.6865 166.01958 514.6865 165.26958Q514.6865 164.73833 514.4053 164.36333Q514.13965 163.9727 513.70215 163.8477Q513.4053 163.76958 512.63965 163.76958L510.4365 163.76958L510.4365 166.8477ZM521.249 171.3477L521.249 170.42583Q520.51465 171.48833 519.26465 171.48833Q518.7178 171.48833 518.2334 171.2852Q517.76465 171.06645 517.5303 170.75395Q517.2959 170.42583 517.20215 169.95708Q517.13965 169.6602 517.13965 168.9727L517.13965 165.12895L518.20215 165.12895L518.20215 168.58208Q518.20215 169.39458 518.26465 169.69145Q518.3584 170.0977 518.6709 170.3477Q518.999 170.58208 519.4834 170.58208Q519.95215 170.58208 520.3584 170.3477Q520.7803 170.0977 520.95215 169.67583Q521.13965 169.25395 521.13965 168.45708L521.13965 165.12895L522.1865 165.12895L522.1865 171.3477L521.249 171.3477ZM525.13965 171.3477L524.1553 171.3477L524.1553 162.75395L525.2178 162.75395L525.2178 165.81645Q525.88965 164.98833 526.9209 164.98833Q527.499 164.98833 527.999 165.2227Q528.51465 165.44145 528.8428 165.86333Q529.1865 166.2852 529.374 166.87895Q529.5615 167.4727 529.5615 168.14458Q529.5615 169.73833 528.76465 170.61333Q527.9678 171.48833 526.874 171.48833Q525.76465 171.48833 525.13965 170.56645L525.13965 171.3477ZM525.124 168.19145Q525.124 169.30083 525.4365 169.80083Q525.9365 170.61333 526.7803 170.61333Q527.4678 170.61333 527.9678 170.01958Q528.4834 169.42583 528.4834 168.2227Q528.4834 167.00395 527.999 166.42583Q527.51465 165.8477 526.82715 165.8477Q526.13965 165.8477 525.624 166.45708Q525.124 167.05083 525.124 168.19145ZM531.13965 171.3477L531.13965 162.75395L532.20215 162.75395L532.20215 171.3477L531.13965 171.3477ZM534.1709 163.9727L534.1709 162.75395L535.2334 162.75395L535.2334 163.9727L534.1709 163.9727ZM534.1709 171.3477L534.1709 165.12895L535.2334 165.12895L535.2334 171.3477L534.1709 171.3477ZM541.2334 169.06645L542.26465 169.20708Q542.0928 170.26958 541.38965 170.87895Q540.6865 171.48833 539.6709 171.48833Q538.38965 171.48833 537.6084 170.6602Q536.8428 169.81645 536.8428 168.25395Q536.8428 167.25395 537.1709 166.50395Q537.51465 165.73833 538.1865 165.36333Q538.874 164.98833 539.6865 164.98833Q540.6865 164.98833 541.32715 165.50395Q541.9834 166.00395 542.1709 166.95708L541.13965 167.11333Q540.999 166.48833 540.624 166.17583Q540.249 165.8477 539.7178 165.8477Q538.9209 165.8477 538.4209 166.42583Q537.9209 166.98833 537.9209 168.2227Q537.9209 169.48833 538.4053 170.05083Q538.88965 170.61333 539.6553 170.61333Q540.2803 170.61333 540.6865 170.23833Q541.1084 169.86333 541.2334 169.06645ZM545.9209 168.58208L546.9834 168.48833Q547.0615 169.14458 547.3428 169.55083Q547.624 169.95708 548.20215 170.2227Q548.7959 170.4727 549.5303 170.4727Q550.1709 170.4727 550.6709 170.2852Q551.1709 170.08208 551.4053 169.75395Q551.6553 169.4102 551.6553 169.01958Q551.6553 168.61333 551.4209 168.31645Q551.1865 168.00395 550.6553 167.80083Q550.2959 167.6602 549.1084 167.37895Q547.9365 167.0977 547.4678 166.8477Q546.8428 166.51958 546.5459 166.05083Q546.249 165.56645 546.249 164.9727Q546.249 164.33208 546.6084 163.76958Q546.9834 163.19145 547.6865 162.9102Q548.4053 162.61333 549.26465 162.61333Q550.2178 162.61333 550.95215 162.92583Q551.6865 163.2227 552.07715 163.83208Q552.4678 164.42583 552.499 165.17583L551.4053 165.25395Q551.3115 164.44145 550.7959 164.0352Q550.2959 163.61333 549.3115 163.61333Q548.2803 163.61333 547.8115 163.98833Q547.3428 164.36333 547.3428 164.89458Q547.3428 165.36333 547.6709 165.6602Q547.999 165.95708 549.374 166.26958Q550.76465 166.58208 551.2803 166.81645Q552.0303 167.17583 552.38965 167.70708Q552.749 168.2227 552.749 168.92583Q552.749 169.61333 552.3584 170.2227Q551.9678 170.81645 551.2334 171.1602Q550.499 171.48833 549.57715 171.48833Q548.4053 171.48833 547.6084 171.1602Q546.82715 170.81645 546.374 170.12895Q545.9365 169.44145 545.9209 168.58208ZM558.2334 170.58208Q557.63965 171.08208 557.0928 171.2852Q556.5615 171.48833 555.9365 171.48833Q554.9053 171.48833 554.3584 170.98833Q553.8115 170.48833 553.8115 169.70708Q553.8115 169.25395 554.01465 168.87895Q554.2178 168.48833 554.5615 168.26958Q554.9053 168.0352 555.32715 167.92583Q555.624 167.83208 556.26465 167.75395Q557.5303 167.61333 558.13965 167.39458Q558.13965 167.17583 558.13965 167.12895Q558.13965 166.4727 557.8428 166.20708Q557.4365 165.86333 556.63965 165.86333Q555.9053 165.86333 555.5459 166.12895Q555.1865 166.37895 555.01465 167.0352L553.9834 166.89458Q554.124 166.23833 554.45215 165.83208Q554.7803 165.42583 555.38965 165.20708Q555.999 164.98833 556.7959 164.98833Q557.5928 164.98833 558.0928 165.17583Q558.5928 165.36333 558.82715 165.64458Q559.0615 165.92583 559.1553 166.36333Q559.20215 166.62895 559.20215 167.33208L559.20215 168.73833Q559.20215 170.20708 559.26465 170.5977Q559.3428 170.98833 559.5459 171.3477L558.4365 171.3477Q558.2803 171.01958 558.2334 170.58208ZM558.13965 168.2227Q557.5615 168.45708 556.4209 168.62895Q555.76465 168.7227 555.499 168.8477Q555.2334 168.95708 555.07715 169.17583Q554.9365 169.39458 554.9365 169.67583Q554.9365 170.0977 555.249 170.37895Q555.57715 170.6602 556.1865 170.6602Q556.7959 170.6602 557.26465 170.39458Q557.749 170.12895 557.9678 169.6602Q558.13965 169.30083 558.13965 168.61333L558.13965 168.2227ZM561.13965 171.3477L561.13965 162.75395L562.20215 162.75395L562.20215 171.3477L561.13965 171.3477ZM568.4209 169.3477L569.51465 169.4727Q569.26465 170.42583 568.5615 170.95708Q567.8584 171.48833 566.7803 171.48833Q565.4209 171.48833 564.6084 170.64458Q563.8115 169.80083 563.8115 168.2852Q563.8115 166.7227 564.624 165.86333Q565.4365 164.98833 566.7178 164.98833Q567.9678 164.98833 568.749 165.83208Q569.5459 166.67583 569.5459 168.2227Q569.5459 168.31645 569.5459 168.50395L564.9053 168.50395Q564.9678 169.5352 565.4834 170.08208Q565.999 170.61333 566.7803 170.61333Q567.3584 170.61333 567.76465 170.31645Q568.1865 170.00395 568.4209 169.3477ZM564.9678 167.64458L568.4365 167.64458Q568.374 166.8477 568.0459 166.45708Q567.5303 165.8477 566.7334 165.8477Q565.999 165.8477 565.499 166.33208Q565.01465 166.81645 564.9678 167.64458Z" fill-rule="nonzero"/><path fill="#ff6d01" d="M500.374 191.3477C500.374 194.66142 497.6877 197.3477 494.374 197.3477C491.0603 197.3477 488.374 194.66142 488.374 191.3477C488.374 188.034 491.0603 185.3477 494.374 185.3477C497.6877 185.3477 500.374 188.034 500.374 191.3477Z" fill-rule="nonzero"/><path fill="#1a1a1a" d="M511.48337 195.3477L511.48337 187.76958L508.65524 187.76958L508.65524 186.75395L515.4678 186.75395L515.4678 187.76958L512.624 187.76958L512.624 195.3477L511.48337 195.3477ZM520.4209 193.3477L521.51465 193.4727Q521.26465 194.42583 520.5615 194.95708Q519.8584 195.48833 518.7803 195.48833Q517.4209 195.48833 516.6084 194.64458Q515.8115 193.80083 515.8115 192.2852Q515.8115 190.7227 516.624 189.86333Q517.4365 188.98833 518.7178 188.98833Q519.9678 188.98833 520.749 189.83208Q521.5459 190.67583 521.5459 192.2227Q521.5459 192.31645 521.5459 192.50395L516.9053 192.50395Q516.9678 193.5352 517.4834 194.08208Q517.999 194.61333 518.7803 194.61333Q519.3584 194.61333 519.76465 194.31645Q520.1865 194.00395 520.4209 193.3477ZM516.9678 191.64458L520.4365 191.64458Q520.374 190.8477 520.0459 190.45708Q519.5303 189.8477 518.7334 189.8477Q517.999 189.8477 517.499 190.33208Q517.01465 190.81645 516.9678 191.64458ZM527.2334 193.06645L528.26465 193.20708Q528.0928 194.26958 527.38965 194.87895Q526.6865 195.48833 525.6709 195.48833Q524.38965 195.48833 523.6084 194.6602Q522.8428 193.81645 522.8428 192.25395Q522.8428 191.25395 523.1709 190.50395Q523.51465 189.73833 524.1865 189.36333Q524.874 188.98833 525.6865 188.98833Q526.6865 188.98833 527.32715 189.50395Q527.9834 190.00395 528.1709 190.95708L527.13965 191.11333Q526.999 190.48833 526.624 190.17583Q526.249 189.8477 525.7178 189.8477Q524.9209 189.8477 524.4209 190.42583Q523.9209 190.98833 523.9209 192.2227Q523.9209 193.48833 524.4053 194.05083Q524.88965 194.61333 525.6553 194.61333Q526.2803 194.61333 526.6865 194.23833Q527.1084 193.86333 527.2334 193.06645ZM529.1709 195.3477L529.1709 186.75395L530.2178 186.75395L530.2178 189.83208Q530.95215 188.98833 532.07715 188.98833Q532.7803 188.98833 533.2803 189.26958Q533.7959 189.5352 534.01465 190.01958Q534.2334 190.48833 534.2334 191.4102L534.2334 195.3477L533.1865 195.3477L533.1865 191.4102Q533.1865 190.61333 532.8428 190.25395Q532.499 189.89458 531.874 189.89458Q531.4053 189.89458 530.9834 190.14458Q530.57715 190.37895 530.38965 190.80083Q530.2178 191.20708 530.2178 191.94145L530.2178 195.3477L529.1709 195.3477ZM536.1709 195.3477L536.1709 189.12895L537.1084 189.12895L537.1084 190.00395Q537.7959 188.98833 539.0928 188.98833Q539.6553 188.98833 540.124 189.19145Q540.6084 189.39458 540.8428 189.7227Q541.07715 190.05083 541.1709 190.48833Q541.2178 190.7852 541.2178 191.51958L541.2178 195.3477L540.1709 195.3477L540.1709 191.56645Q540.1709 190.9102 540.0459 190.5977Q539.9209 190.2852 539.6084 190.0977Q539.2959 189.89458 538.874 189.89458Q538.20215 189.89458 537.70215 190.33208Q537.2178 190.75395 537.2178 191.94145L537.2178 195.3477L536.1709 195.3477ZM543.1709 187.9727L543.1709 186.75395L544.2334 186.75395L544.2334 187.9727L543.1709 187.9727ZM543.1709 195.3477L543.1709 189.12895L544.2334 189.12895L544.2334 195.3477L543.1709 195.3477ZM550.2334 193.06645L551.26465 193.20708Q551.0928 194.26958 550.38965 194.87895Q549.6865 195.48833 548.6709 195.48833Q547.38965 195.48833 546.6084 194.6602Q545.8428 193.81645 545.8428 192.25395Q545.8428 191.25395 546.1709 190.50395Q546.51465 189.73833 547.1865 189.36333Q547.874 188.98833 548.6865 188.98833Q549.6865 188.98833 550.32715 189.50395Q550.9834 190.00395 551.1709 190.95708L550.13965 191.11333Q549.999 190.48833 549.624 190.17583Q549.249 189.8477 548.7178 189.8477Q547.9209 189.8477 547.4209 190.42583Q546.9209 190.98833 546.9209 192.2227Q546.9209 193.48833 547.4053 194.05083Q547.88965 194.61333 548.6553 194.61333Q549.2803 194.61333 549.6865 194.23833Q550.1084 193.86333 550.2334 193.06645ZM556.2334 194.58208Q555.63965 195.08208 555.0928 195.2852Q554.5615 195.48833 553.9365 195.48833Q552.9053 195.48833 552.3584 194.98833Q551.8115 194.48833 551.8115 193.70708Q551.8115 193.25395 552.01465 192.87895Q552.2178 192.48833 552.5615 192.26958Q552.9053 192.0352 553.32715 191.92583Q553.624 191.83208 554.26465 191.75395Q555.5303 191.61333 556.13965 191.39458Q556.13965 191.17583 556.13965 191.12895Q556.13965 190.4727 555.8428 190.20708Q555.4365 189.86333 554.63965 189.86333Q553.9053 189.86333 553.5459 190.12895Q553.1865 190.37895 553.01465 191.0352L551.9834 190.89458Q552.124 190.23833 552.45215 189.83208Q552.7803 189.42583 553.38965 189.20708Q553.999 188.98833 554.7959 188.98833Q555.5928 188.98833 556.0928 189.17583Q556.5928 189.36333 556.82715 189.64458Q557.0615 189.92583 557.1553 190.36333Q557.20215 190.62895 557.20215 191.33208L557.20215 192.73833Q557.20215 194.20708 557.26465 194.5977Q557.3428 194.98833 557.5459 195.3477L556.4365 195.3477Q556.2803 195.01958 556.2334 194.58208ZM556.13965 192.2227Q555.5615 192.45708 554.4209 192.62895Q553.76465 192.7227 553.499 192.8477Q553.2334 192.95708 553.07715 193.17583Q552.9365 193.39458 552.9365 193.67583Q552.9365 194.0977 553.249 194.37895Q553.57715 194.6602 554.1865 194.6602Q554.7959 194.6602 555.26465 194.39458Q555.749 194.12895 555.9678 193.6602Q556.13965 193.30083 556.13965 192.61333L556.13965 192.2227ZM559.13965 195.3477L559.13965 186.75395L560.20215 186.75395L560.20215 195.3477L559.13965 195.3477Z" fill-rule="nonzero"/><path fill="#46bdc6" d="M500.374 215.3477C500.374 218.66142 497.6877 221.3477 494.374 221.3477C491.0603 221.3477 488.374 218.66142 488.374 215.3477C488.374 212.034 491.0603 209.3477 494.374 209.3477C497.6877 209.3477 500.374 212.034 500.374 215.3477Z" fill-rule="nonzero"/><path fill="#1a1a1a" d="M509.29587 219.3477L509.29587 210.75395L512.5459 210.75395Q513.38965 210.75395 513.8428 210.83208Q514.4834 210.94145 514.9053 211.23833Q515.3428 211.5352 515.5928 212.06645Q515.8584 212.5977 515.8584 213.23833Q515.8584 214.33208 515.1553 215.0977Q514.4678 215.8477 512.63965 215.8477L510.4365 215.8477L510.4365 219.3477L509.29587 219.3477ZM510.4365 214.8477L512.6553 214.8477Q513.76465 214.8477 514.2178 214.44145Q514.6865 214.01958 514.6865 213.26958Q514.6865 212.73833 514.4053 212.36333Q514.13965 211.9727 513.70215 211.8477Q513.4053 211.76958 512.63965 211.76958L510.4365 211.76958L510.4365 214.8477ZM521.2334 218.58208Q520.63965 219.08208 520.0928 219.2852Q519.5615 219.48833 518.9365 219.48833Q517.9053 219.48833 517.3584 218.98833Q516.8115 218.48833 516.8115 217.70708Q516.8115 217.25395 517.01465 216.87895Q517.2178 216.48833 517.5615 216.26958Q517.9053 216.0352 518.32715 215.92583Q518.624 215.83208 519.26465 215.75395Q520.5303 215.61333 521.13965 215.39458Q521.13965 215.17583 521.13965 215.12895Q521.13965 214.4727 520.8428 214.20708Q520.4365 213.86333 519.63965 213.86333Q518.9053 213.86333 518.5459 214.12895Q518.1865 214.37895 518.01465 215.0352L516.9834 214.89458Q517.124 214.23833 517.45215 213.83208Q517.7803 213.42583 518.38965 213.20708Q518.999 212.98833 519.7959 212.98833Q520.5928 212.98833 521.0928 213.17583Q521.5928 213.36333 521.82715 213.64458Q522.0615 213.92583 522.1553 214.36333Q522.20215 214.62895 522.20215 215.33208L522.20215 216.73833Q522.20215 218.20708 522.26465 218.5977Q522.3428 218.98833 522.5459 219.3477L521.4365 219.3477Q521.2803 219.01958 521.2334 218.58208ZM521.13965 216.2227Q520.5615 216.45708 519.4209 216.62895Q518.76465 216.7227 518.499 216.8477Q518.2334 216.95708 518.07715 217.17583Q517.9365 217.39458 517.9365 217.67583Q517.9365 218.0977 518.249 218.37895Q518.57715 218.6602 519.1865 218.6602Q519.7959 218.6602 520.26465 218.39458Q520.749 218.12895 520.9678 217.6602Q521.13965 217.30083 521.13965 216.61333L521.13965 216.2227ZM524.1553 219.3477L524.1553 213.12895L525.1084 213.12895L525.1084 214.06645Q525.4678 213.4102 525.76465 213.20708Q526.07715 212.98833 526.45215 212.98833Q526.9834 212.98833 527.5303 213.31645L527.1709 214.30083Q526.7803 214.06645 526.4053 214.06645Q526.0459 214.06645 525.76465 214.2852Q525.499 214.48833 525.38965 214.86333Q525.20215 215.42583 525.20215 216.08208L525.20215 219.3477L524.1553 219.3477ZM530.4678 218.4102L530.624 219.33208Q530.1709 219.42583 529.82715 219.42583Q529.249 219.42583 528.9365 219.25395Q528.624 219.06645 528.4834 218.76958Q528.3584 218.4727 528.3584 217.51958L528.3584 213.94145L527.5928 213.94145L527.5928 213.12895L528.3584 213.12895L528.3584 211.58208L529.4053 210.95708L529.4053 213.12895L530.4678 213.12895L530.4678 213.94145L529.4053 213.94145L529.4053 217.58208Q529.4053 218.0352 529.45215 218.1602Q529.51465 218.2852 529.63965 218.36333Q529.76465 218.44145 529.999 218.44145Q530.1865 218.44145 530.4678 218.4102ZM531.1709 219.3477L531.1709 213.12895L532.1084 213.12895L532.1084 214.00395Q532.7959 212.98833 534.0928 212.98833Q534.6553 212.98833 535.124 213.19145Q535.6084 213.39458 535.8428 213.7227Q536.07715 214.05083 536.1709 214.48833Q536.2178 214.7852 536.2178 215.51958L536.2178 219.3477L535.1709 219.3477L535.1709 215.56645Q535.1709 214.9102 535.0459 214.5977Q534.9209 214.2852 534.6084 214.0977Q534.2959 213.89458 533.874 213.89458Q533.20215 213.89458 532.70215 214.33208Q532.2178 214.75395 532.2178 215.94145L532.2178 219.3477L531.1709 219.3477ZM542.4209 217.3477L543.51465 217.4727Q543.26465 218.42583 542.5615 218.95708Q541.8584 219.48833 540.7803 219.48833Q539.4209 219.48833 538.6084 218.64458Q537.8115 217.80083 537.8115 216.2852Q537.8115 214.7227 538.624 213.86333Q539.4365 212.98833 540.7178 212.98833Q541.9678 212.98833 542.749 213.83208Q543.5459 214.67583 543.5459 216.2227Q543.5459 216.31645 543.5459 216.50395L538.9053 216.50395Q538.9678 217.5352 539.4834 218.08208Q539.999 218.61333 540.7803 218.61333Q541.3584 218.61333 541.76465 218.31645Q542.1865 218.00395 542.4209 217.3477ZM538.9678 215.64458L542.4365 215.64458Q542.374 214.8477 542.0459 214.45708Q541.5303 213.8477 540.7334 213.8477Q539.999 213.8477 539.499 214.33208Q539.01465 214.81645 538.9678 215.64458ZM545.1553 219.3477L545.1553 213.12895L546.1084 213.12895L546.1084 214.06645Q546.4678 213.4102 546.76465 213.20708Q547.07715 212.98833 547.45215 212.98833Q547.9834 212.98833 548.5303 213.31645L548.1709 214.30083Q547.7803 214.06645 547.4053 214.06645Q547.0459 214.06645 546.76465 214.2852Q546.499 214.48833 546.38965 214.86333Q546.20215 215.42583 546.20215 216.08208L546.20215 219.3477L545.1553 219.3477ZM548.749 217.48833L549.7803 217.33208Q549.874 217.95708 550.26465 218.2852Q550.6709 218.61333 551.4053 218.61333Q552.124 218.61333 552.4678 218.33208Q552.82715 218.0352 552.82715 217.62895Q552.82715 217.26958 552.51465 217.06645Q552.2959 216.92583 551.4365 216.70708Q550.2803 216.4102 549.82715 216.20708Q549.38965 215.98833 549.1553 215.61333Q548.9209 215.23833 548.9209 214.76958Q548.9209 214.36333 549.1084 214.00395Q549.2959 213.64458 549.624 213.4102Q549.874 213.23833 550.2959 213.11333Q550.7178 212.98833 551.2178 212.98833Q551.9365 212.98833 552.4834 213.20708Q553.0459 213.4102 553.3115 213.76958Q553.57715 214.12895 553.6709 214.7227L552.63965 214.86333Q552.57715 214.39458 552.2334 214.12895Q551.9053 213.8477 551.2803 213.8477Q550.5615 213.8477 550.249 214.0977Q549.9365 214.33208 549.9365 214.6602Q549.9365 214.86333 550.0615 215.01958Q550.20215 215.19145 550.4678 215.30083Q550.624 215.36333 551.4053 215.56645Q552.5303 215.87895 552.9678 216.06645Q553.4053 216.25395 553.6553 216.61333Q553.9053 216.9727 553.9053 217.51958Q553.9053 218.05083 553.5928 218.51958Q553.2959 218.9727 552.7178 219.23833Q552.13965 219.48833 551.4053 219.48833Q550.1865 219.48833 549.5459 218.98833Q548.9209 218.4727 548.749 217.48833Z" fill-rule="nonzero"/><path fill="#7baaf7" d="M500.374 239.3477C500.374 242.66142 497.6877 245.3477 494.374 245.3477C491.0603 245.3477 488.374 242.66142 488.374 239.3477C488.374 236.034 491.0603 233.3477 494.374 233.3477C497.6877 233.3477 500.374 236.034 500.374 239.3477Z" fill-rule="nonzero"/><path fill="#1a1a1a" d="M511.48337 243.3477L511.48337 235.76958L508.65524 235.76958L508.65524 234.75395L515.4678 234.75395L515.4678 235.76958L512.624 235.76958L512.624 243.3477L511.48337 243.3477ZM520.4209 241.3477L521.51465 241.4727Q521.26465 242.42583 520.5615 242.95708Q519.8584 243.48833 518.7803 243.48833Q517.4209 243.48833 516.6084 242.64458Q515.8115 241.80083 515.8115 240.2852Q515.8115 238.7227 516.624 237.86333Q517.4365 236.98833 518.7178 236.98833Q519.9678 236.98833 520.749 237.83208Q521.5459 238.67583 521.5459 240.2227Q521.5459 240.31645 521.5459 240.50395L516.9053 240.50395Q516.9678 241.5352 517.4834 242.08208Q517.999 242.61333 518.7803 242.61333Q519.3584 242.61333 519.76465 242.31645Q520.1865 242.00395 520.4209 241.3477ZM516.9678 239.64458L520.4365 239.64458Q520.374 238.8477 520.0459 238.45708Q519.5303 237.8477 518.7334 237.8477Q517.999 237.8477 517.499 238.33208Q517.01465 238.81645 516.9678 239.64458ZM522.749 241.48833L523.7803 241.33208Q523.874 241.95708 524.26465 242.2852Q524.6709 242.61333 525.4053 242.61333Q526.124 242.61333 526.4678 242.33208Q526.82715 242.0352 526.82715 241.62895Q526.82715 241.26958 526.51465 241.06645Q526.2959 240.92583 525.4365 240.70708Q524.2803 240.4102 523.82715 240.20708Q523.38965 239.98833 523.1553 239.61333Q522.9209 239.23833 522.9209 238.76958Q522.9209 238.36333 523.1084 238.00395Q523.2959 237.64458 523.624 237.4102Q523.874 237.23833 524.2959 237.11333Q524.7178 236.98833 525.2178 236.98833Q525.9365 236.98833 526.4834 237.20708Q527.0459 237.4102 527.3115 237.76958Q527.57715 238.12895 527.6709 238.7227L526.63965 238.86333Q526.57715 238.39458 526.2334 238.12895Q525.9053 237.8477 525.2803 237.8477Q524.5615 237.8477 524.249 238.0977Q523.9365 238.33208 523.9365 238.6602Q523.9365 238.86333 524.0615 239.01958Q524.20215 239.19145 524.4678 239.30083Q524.624 239.36333 525.4053 239.56645Q526.5303 239.87895 526.9678 240.06645Q527.4053 240.25395 527.6553 240.61333Q527.9053 240.9727 527.9053 241.51958Q527.9053 242.05083 527.5928 242.51958Q527.2959 242.9727 526.7178 243.23833Q526.13965 243.48833 525.4053 243.48833Q524.1865 243.48833 523.5459 242.98833Q522.9209 242.4727 522.749 241.48833ZM532.4678 242.4102L532.624 243.33208Q532.1709 243.42583 531.82715 243.42583Q531.249 243.42583 530.9365 243.25395Q530.624 243.06645 530.4834 242.76958Q530.3584 242.4727 530.3584 241.51958L530.3584 237.94145L529.5928 237.94145L529.5928 237.12895L530.3584 237.12895L530.3584 235.58208L531.4053 234.95708L531.4053 237.12895L532.4678 237.12895L532.4678 237.94145L531.4053 237.94145L531.4053 241.58208Q531.4053 242.0352 531.45215 242.1602Q531.51465 242.2852 531.63965 242.36333Q531.76465 242.44145 531.999 242.44145Q532.1865 242.44145 532.4678 242.4102ZM533.1709 243.3477L533.1709 237.12895L534.1084 237.12895L534.1084 238.00395Q534.7959 236.98833 536.0928 236.98833Q536.6553 236.98833 537.124 237.19145Q537.6084 237.39458 537.8428 237.7227Q538.07715 238.05083 538.1709 238.48833Q538.2178 238.7852 538.2178 239.51958L538.2178 243.3477L537.1709 243.3477L537.1709 239.56645Q537.1709 238.9102 537.0459 238.5977Q536.9209 238.2852 536.6084 238.0977Q536.2959 237.89458 535.874 237.89458Q535.20215 237.89458 534.70215 238.33208Q534.2178 238.75395 534.2178 239.94145L534.2178 243.3477L533.1709 243.3477ZM544.4209 241.3477L545.51465 241.4727Q545.26465 242.42583 544.5615 242.95708Q543.8584 243.48833 542.7803 243.48833Q541.4209 243.48833 540.6084 242.64458Q539.8115 241.80083 539.8115 240.2852Q539.8115 238.7227 540.624 237.86333Q541.4365 236.98833 542.7178 236.98833Q543.9678 236.98833 544.749 237.83208Q545.5459 238.67583 545.5459 240.2227Q545.5459 240.31645 545.5459 240.50395L540.9053 240.50395Q540.9678 241.5352 541.4834 242.08208Q541.999 242.61333 542.7803 242.61333Q543.3584 242.61333 543.76465 242.31645Q544.1865 242.00395 544.4209 241.3477ZM540.9678 239.64458L544.4365 239.64458Q544.374 238.8477 544.0459 238.45708Q543.5303 237.8477 542.7334 237.8477Q541.999 237.8477 541.499 238.33208Q541.01465 238.81645 540.9678 239.64458ZM549.4678 242.4102L549.624 243.33208Q549.1709 243.42583 548.82715 243.42583Q548.249 243.42583 547.9365 243.25395Q547.624 243.06645 547.4834 242.76958Q547.3584 242.4727 547.3584 241.51958L547.3584 237.94145L546.5928 237.94145L546.5928 237.12895L547.3584 237.12895L547.3584 235.58208L548.4053 234.95708L548.4053 237.12895L549.4678 237.12895L549.4678 237.94145L548.4053 237.94145L548.4053 241.58208Q548.4053 242.0352 548.45215 242.1602Q548.51465 242.2852 548.63965 242.36333Q548.76465 242.44145 548.999 242.44145Q549.1865 242.44145 549.4678 242.4102Z" fill-rule="nonzero"/></svg>