<svg width="147" height="36" viewBox="0 0 147 36" fill="none" xmlns="http://www.w3.org/2000/svg">
<path d="M23.3199 3.46191L2.41211 26.8945" stroke="black" stroke-width="1.06967"/>
<path d="M46.2419 8.39746L2.41211 26.8939" stroke="black" stroke-width="1.06967"/>
<path d="M23.6321 32.8226L2.35547 26.9219" stroke="black" stroke-width="1.06967"/>
<path d="M23.8877 3.23438L17.0508 21.0216" stroke="black" stroke-width="1.06967"/>
<path d="M24.6808 32.3694L17.1914 20.7949" stroke="black" stroke-width="1.06967"/>
<path d="M23.8301 2.46875L46.2982 6.72407" stroke="black" stroke-width="1.06967"/>
<path d="M23.7734 2.21289L44.511 18.7803" stroke="black" stroke-width="1.06967"/>
<path d="M47.831 10.0713L44.4551 18.8656" stroke="black" stroke-width="1.06967"/>
<path d="M24.1426 2.01465L25.2773 33.5608" stroke="black" stroke-width="1.06967"/>
<path d="M47.0639 9.21973L25.1348 33.4751" stroke="black" stroke-width="1.06967"/>
<path d="M43.0348 19.915L26.127 32.6526" stroke="black" stroke-width="1.06967"/>
<circle cx="49.2214" cy="7.20576" r="4.39717" fill="#FFC107"/>
<circle cx="25.2336" cy="32.7229" r="3.2766" fill="#2196F4"/>
<circle cx="24.1852" cy="2.3688" r="2.3688" fill="#F34335"/>
<circle cx="17.0934" cy="20.6666" r="2.3688" fill="#9C27AF"/>
<circle cx="2.3688" cy="26.9928" r="2.3688" fill="#F34335"/>
<circle cx="44.4958" cy="19.1627" r="2.3688" fill="#8BC349"/>
<path d="M59.9211 3.95948V15.207H62.5365V8.08305L65.1518 14.0839H67.0772L69.6925 8.08305L69.7086 15.207H72.3079V3.95948H69.0989L66.1145 10.5219L63.1301 3.95948H59.9211ZM74.4933 3.95948V15.207H83.5266V12.8645H77.4295V10.7465L82.7885 10.7305V8.40395H77.4295V6.30205H83.3661V3.95948H74.4933ZM93.0702 7.4252L94.1773 5.09868C93.0061 4.34456 91.3374 3.83112 89.6847 3.83112C86.9731 3.83112 85.1921 5.16286 85.1921 7.26475C85.1921 11.2439 91.1128 10.0887 91.1128 11.998C91.1128 12.5917 90.5672 12.9126 89.7008 12.9126C88.5295 12.9126 86.7806 12.2066 85.6254 11.2118L84.4862 13.5063C85.8339 14.6134 87.7914 15.3033 89.6687 15.3033C92.1717 15.3033 94.1934 14.132 94.1934 11.8376C94.1934 7.79424 88.2728 8.85321 88.2728 6.99199C88.2728 6.47855 88.7381 6.22183 89.4441 6.22183C90.3747 6.22183 91.8829 6.75131 93.0702 7.4252ZM101.052 3.87926C97.5706 3.87926 94.9713 6.30205 94.9713 9.57523C94.9713 12.8645 97.5706 15.3354 101.052 15.3354C104.534 15.3354 107.133 12.8645 107.133 9.57523C107.133 6.3181 104.534 3.87926 101.052 3.87926ZM101.084 6.38228C102.769 6.38228 104.117 7.76215 104.117 9.59128C104.117 11.4204 102.769 12.8324 101.084 12.8324C99.4158 12.8324 97.9878 11.4204 97.9878 9.59128C97.9878 7.76215 99.3997 6.38228 101.084 6.38228ZM108.589 3.95948V15.207H111.333V8.46813L116.435 15.207H119.002V3.95948H116.274V10.7305L111.172 3.95948H108.589ZM122.069 12.5596C121.267 12.5596 120.705 13.1212 120.705 13.9395C120.705 14.7578 121.267 15.3354 122.069 15.3354C122.871 15.3354 123.449 14.7578 123.449 13.9395C123.449 13.1212 122.871 12.5596 122.069 12.5596ZM59.9211 20.9595V32.207H62.6648V25.4681L67.7671 32.207H70.3343V20.9595H67.6067V27.7305L62.5044 20.9595H59.9211ZM72.5346 20.9595V32.207H81.568V29.8645H75.4709V27.7465L80.8299 27.7305V25.4039H75.4709V23.3021H81.4075V20.9595H72.5346ZM82.3831 20.9595V23.3823H85.7205V32.207H88.6567V23.3823H92.0262V20.9595H82.3831ZM92.0945 20.9595L95.7849 32.207H98.8013L100.887 24.6177L102.909 32.207H105.941L109.648 20.9595H106.631L104.513 29.0943L102.379 20.9595H99.5073L97.3894 29.0943L95.2554 20.9595H92.0945ZM115.954 20.8793C112.472 20.8793 109.872 23.3021 109.872 26.5752C109.872 29.8645 112.472 32.3354 115.954 32.3354C119.435 32.3354 122.035 29.8645 122.035 26.5752C122.035 23.3181 119.435 20.8793 115.954 20.8793ZM115.986 23.3823C117.67 23.3823 119.018 24.7621 119.018 26.5913C119.018 28.4204 117.67 29.8324 115.986 29.8324C114.317 29.8324 112.889 28.4204 112.889 26.5913C112.889 24.7621 114.301 23.3823 115.986 23.3823ZM133.566 32.207L131.224 28.5327C132.523 27.8588 133.229 26.6073 133.229 24.9066C133.229 22.4035 131.529 20.9595 128.544 20.9595H123.49V32.207H126.426V29.0943H128.544H128.608L130.245 32.207H133.566ZM126.426 23.3021H128.56C129.748 23.3021 130.438 23.8957 130.438 25.0028C130.438 26.142 129.748 26.7517 128.56 26.7517H126.426V23.3021ZM145.915 32.207L141.487 25.6125L145.658 20.9595H142.257L138.037 25.6767V20.9595H135.101V32.207H138.037V29.4633L139.481 27.8588L142.401 32.207H145.915Z" fill="black"/>
</svg>
